<svg xmlns="http://www.w3.org/2000/svg" viewBox="0 0 100 100">
  <defs>
    <radialGradient id="tw-ring" cx="35%" cy="28%" r="70%">
      <stop offset="0%" stop-color="#f0f2f5"/>
      <stop offset="30%" stop-color="#c8cdd4"/>
      <stop offset="60%" stop-color="#8a9099"/>
      <stop offset="80%" stop-color="#5e6670"/>
      <stop offset="100%" stop-color="#3a3f47"/>
    </radialGradient>
    <filter id="tw-shadow" x="-15%" y="-15%" width="130%" height="130%">
      <feDropShadow dx="0" dy="4" stdDeviation="5" flood-color="#000000" flood-opacity="0.65"/>
    </filter>
    <radialGradient id="tw-gloss" cx="62%" cy="18%" r="55%">
      <stop offset="0%" stop-color="#ffffff" stop-opacity="0.90"/>
      <stop offset="40%" stop-color="#ffffff" stop-opacity="0.45"/>
      <stop offset="100%" stop-color="#ffffff" stop-opacity="0"/>
    </radialGradient>
    <radialGradient id="tw-reflect" cx="38%" cy="82%" r="40%">
      <stop offset="0%" stop-color="#666e7a" stop-opacity="0.55"/>
      <stop offset="100%" stop-color="#666e7a" stop-opacity="0"/>
    </radialGradient>
  </defs>

  <circle cx="50" cy="50" r="49" fill="url(#tw-ring)" filter="url(#tw-shadow)"/>
  <circle cx="50" cy="50" r="42" fill="#080b14"/>
  <circle cx="50" cy="50" r="42" fill="url(#tw-reflect)"/>

  <!-- Twitter/X bird shape -->
  <path d="M 73,28 C 70,29.5 67,30 63.5,30.5 C 66.5,28.5 68.8,25.5 69.8,22 C 66.9,23.8 63.7,25.1 60.2,25.8 C 57.5,22.8 53.5,21 49.2,21 C 41,21 34.3,27.7 34.3,35.9 C 34.3,37.1 34.4,38.2 34.7,39.3 C 22.6,38.7 11.9,32.7 4.8,23.6 C 3.5,25.9 2.7,28.5 2.7,31.3 C 2.7,36.6 5.4,41.3 9.5,44.1 C 7,44 4.6,43.3 2.5,42.1 L 2.5,42.3 C 2.5,49.5 7.6,55.5 14.4,56.9 C 13.1,57.3 11.7,57.5 10.3,57.5 C 9.3,57.5 8.3,57.4 7.3,57.2 C 9.3,63.2 14.9,67.5 21.5,67.6 C 16.3,71.7 9.8,74.1 2.8,74.1 C 1.6,74.1 0.4,74 -0.8,73.9 C 5.9,78.2 13.8,80.7 22.4,80.7 C 49.1,80.7 63.7,57.7 63.7,37.8 C 63.7,37.1 63.7,36.5 63.7,35.8 C 66.6,33.7 69.2,31.1 71.3,28.1 Z" fill="#1da1f2" transform="translate(14,10) scale(0.76)"/>

  <circle cx="50" cy="50" r="42" fill="url(#tw-gloss)"/>
</svg>
